<?xml version="1.0" encoding="UTF-8" standalone="no"?>
<!DOCTYPE svg PUBLIC "-//W3C//DTD SVG 1.1//EN" "http://www.w3.org/Graphics/SVG/1.1/DTD/svg11.dtd">
<!-- Created with Vectornator (http://vectornator.io/) -->
<svg height="777.0pt" stroke-miterlimit="10" style="fill-rule:nonzero;clip-rule:evenodd;stroke-linecap:round;stroke-linejoin:round;" version="1.1" viewBox="0 0 2333 777" width="2333.0pt" xml:space="preserve" xmlns="http://www.w3.org/2000/svg" xmlns:xlink="http://www.w3.org/1999/xlink">
<defs>
<linearGradient gradientTransform="matrix(-1.04225 733.746 -733.746 -1.04225 439.66 20.1996)" gradientUnits="userSpaceOnUse" id="LinearGradient" x1="0" x2="1" y1="0" y2="0">
<stop offset="0" stop-color="#7405e8"/>
<stop offset="0.5" stop-color="#5309e8"/>
<stop offset="1" stop-color="#0511e8"/>
</linearGradient>
</defs>
<g id="黒文字">
<path d="M295.096 21.615C260.765 21.615 219.164 45.7703 201.999 75.5012L52.2639 334.614C35.0987 364.345 35.0987 412.655 52.2639 442.386L201.999 701.499C219.164 731.23 260.765 755.385 295.096 755.385L594.566 755.385C628.896 755.385 670.497 731.23 687.663 701.499L837.398 442.386C854.563 412.655 854.563 364.345 837.398 334.614L687.663 75.5012C670.498 45.7703 628.896 21.615 594.566 21.615L295.096 21.615Z" fill="url(#LinearGradient)" fill-rule="nonzero" opacity="1" stroke="none"/>
<path d="M266.75 135.312C264.64 135.312 262.744 136.639 262.031 138.625C251.706 167.38 176.354 377.172 165.969 406.094C164.799 409.351 167.226 412.782 170.688 412.781C178.449 412.781 212.049 412.781 218.375 412.781C220.507 412.781 222.397 411.421 223.094 409.406C224.862 404.293 238.348 365.32 240.188 360L350.562 360C352.402 365.319 365.885 404.286 367.656 409.406C368.353 411.421 370.244 412.781 372.375 412.781C377.453 412.781 466.562 412.781 466.562 412.781C466.562 419.903 466.562 426.691 466.562 433.812L466.562 452.312C419.914 475.815 392.5 519.611 392.5 560.562C392.5 573.026 394.983 584.773 399.969 595.812C411.008 620.739 432.022 632.5 454.812 632.5C469.413 632.5 484.706 627.884 498.594 618.625C544.174 588.713 576.955 536.71 602.594 486.5C624.316 496.115 636.406 515.34 636.406 535.281C636.406 564.125 611.119 594.759 552.719 600.812C549.87 601.169 548.469 602.582 548.469 604.719C548.469 605.431 548.456 606.163 548.812 606.875L563.406 641.75C564.475 644.243 566.257 645.312 568.75 645.312L569.469 645.312C648.166 636.41 684.125 587.273 684.125 538.844C684.125 498.605 658.493 459.069 611.844 444.469C594.751 439.483 573.047 436.281 550.969 436.281C537.437 436.281 523.882 437.351 511.062 439.844L511.781 412.781L670.594 412.781C673.799 412.781 675.594 411.017 675.594 407.812L675.594 374.344C675.594 371.139 673.799 369.344 670.594 369.344L514.625 369.344C515.337 359.729 516.057 350.102 517.125 340.844C517.125 337.639 515.686 335.5 512.125 335.5L475.094 334.812C471.889 334.456 470.106 336.233 469.75 339.438L468.344 369.344L411.969 369.344C389.729 307.401 338.023 163.406 329.125 138.625C328.412 136.639 326.516 135.313 324.406 135.312C311.238 135.312 279.918 135.312 266.75 135.312ZM295.375 199.594L335.469 315.531L255.281 315.531C259 304.784 288.074 220.694 295.375 199.594ZM542.062 478.312C547.404 478.312 552.74 478.663 558.438 479.375C548.111 500.385 535.275 521.752 521.031 540.625C514.978 524.244 511.431 505.009 510.719 482.219C520.333 479.726 531.024 478.312 542.062 478.312ZM469.75 499.688C472.599 526.395 477.941 551.654 486.844 575.156C482.571 578.717 478.304 581.932 474.031 584.781C469.402 587.986 464.067 589.406 459.438 589.406C451.959 589.406 445.179 585.841 440.906 578.719C437.345 572.309 435.563 565.197 435.562 557.719C435.562 537.777 447.672 515.712 469.75 499.688Z" fill="#ffffff" fill-rule="nonzero" opacity="1" stroke="none"/>
<path d="M1212.53 131.688L1212.53 132C1162.76 131.108 1125.21 140.738 1100.31 161.344C1074.95 182.329 1062.25 215.031 1062.25 259.625L1062.25 277.969L998.656 277.969L998.656 353.5L1062.25 353.5L1062.25 641.344L1155.34 641.344L1155.34 353.5L1237.28 353.5L1237.28 277.969L1155.34 277.969L1155.34 263C1155.34 242.452 1159.76 228.213 1168.5 220.344C1177.24 212.474 1192.83 208.75 1215.12 209.188L1237.28 209.188L1237.28 131.688L1212.53 131.688ZM1710.75 159.375C1604.43 159.375 1555.75 217.835 1555.75 289.938C1555.75 329.802 1577.03 365.443 1610.47 389.375C1570.75 415.435 1545 456.505 1545 502.781C1545 581.523 1603.21 645.312 1710.75 645.312C1819.48 645.312 1876.44 581.523 1876.44 502.781C1876.44 456.486 1850.69 415.433 1810.97 389.375C1844.41 365.443 1865.69 329.817 1865.69 289.938C1865.69 217.834 1816.43 159.375 1710.75 159.375ZM1382.94 163.344L1289.69 227.906L1289.69 326.781L1382.44 262.219L1382.94 262.219L1382.94 641.344L1477.22 641.344L1477.22 163.344L1382.94 163.344ZM1710.72 237.5C1755.5 237.015 1778.78 264.36 1778.78 297.469C1778.78 330.578 1753.56 357.344 1710.72 357.344C1668.43 357.344 1642.59 330.578 1642.59 297.469C1642.59 264.359 1666.58 237.978 1710.72 237.5ZM2131.31 272.781C2108.58 272.781 2087.71 277.287 2068.69 286.25C2049.67 295.213 2034.05 307.542 2021.81 323.281L2021.81 278.031L1930 278.031L1930 641.344L2021.81 641.344L2021.81 440.688C2021.81 411.832 2029.13 389.646 2043.78 374.125C2058.43 358.604 2078.42 350.844 2103.78 350.844C2128.7 350.844 2148.38 358.604 2162.81 374.125C2177.24 389.646 2184.44 411.832 2184.44 440.688L2184.44 641.344L2276.25 641.344L2276.25 428.219C2276.25 379.252 2262.92 341.106 2236.25 313.781C2209.58 286.456 2174.6 272.781 2131.31 272.781ZM1710.69 429.531C1763.83 428.967 1791.47 460.803 1791.47 499.312C1791.47 537.823 1761.53 569.094 1710.69 569.094C1660.5 569.094 1629.87 537.823 1629.88 499.312C1629.88 460.802 1658.31 430.087 1710.69 429.531Z" fill="#ffffff" fill-rule="nonzero" opacity="1" stroke="none"/>
</g>
</svg>
